<?xml version="1.0" standalone="no"?>
<!DOCTYPE svg PUBLIC "-//W3C//DTD SVG 20010904//EN"
 "http://www.w3.org/TR/2001/REC-SVG-20010904/DTD/svg10.dtd">
<svg version="1.0" xmlns="http://www.w3.org/2000/svg"
 width="512.000000pt" height="512.000000pt" viewBox="0 0 512.000000 512.000000"
 preserveAspectRatio="xMidYMid meet">

<g transform="translate(0.000000,512.000000) scale(0.100000,-0.100000)"
fill="#000000" stroke="none">
<path d="M2315 5109 c-786 -75 -1501 -518 -1927 -1196 -487 -774 -516 -1777
-75 -2578 198 -360 493 -682 833 -908 326 -216 686 -350 1099 -409 117 -16
512 -17 630 0 631 88 1152 360 1577 821 349 378 573 862 650 1406 20 139 17
503 -6 660 -21 155 -80 393 -131 531 -45 123 -167 374 -231 474 -196 309 -470
589 -769 788 -133 89 -391 218 -540 271 -357 126 -742 175 -1110 140z m532
-264 c351 -46 698 -174 978 -360 511 -340 872 -872 989 -1457 40 -198 49 -313
43 -533 -13 -497 -163 -927 -463 -1325 -347 -461 -870 -779 -1444 -880 -158
-28 -477 -38 -630 -21 -457 52 -890 235 -1231 520 -452 378 -736 896 -814
1484 -19 148 -19 417 -1 567 110 882 717 1625 1556 1903 152 51 287 82 435
102 142 18 439 18 582 0z"/>
<path d="M2365 4599 c-463 -48 -896 -248 -1229 -568 -162 -156 -316 -369 -417
-576 -410 -844 -194 -1858 526 -2463 476 -400 1120 -563 1728 -437 1064 221
1775 1239 1611 2310 -125 814 -726 1478 -1523 1680 -207 52 -497 75 -696 54z
m426 -264 c619 -82 1148 -473 1400 -1036 98 -218 147 -429 156 -674 24 -639
-289 -1234 -832 -1580 -588 -374 -1365 -365 -1945 24 -506 338 -800 887 -800
1491 0 826 558 1538 1363 1739 196 50 454 64 658 36z"/>
<path d="M2501 3822 c-53 -27 -71 -71 -71 -174 0 -65 -3 -88 -13 -88 -7 0 -45
-16 -86 -35 -129 -62 -228 -185 -266 -332 -32 -121 -10 -304 49 -420 66 -131
150 -202 393 -330 118 -62 181 -102 214 -135 63 -63 91 -136 92 -244 1 -72 -2
-86 -30 -135 -38 -69 -97 -114 -168 -130 -149 -33 -290 71 -310 230 -13 101
-52 145 -130 143 -108 -1 -150 -93 -110 -245 38 -147 137 -270 266 -332 41
-19 79 -35 85 -35 8 0 13 -31 16 -97 2 -83 7 -103 26 -130 48 -67 156 -67 204
0 19 27 24 47 26 127 l4 96 51 18 c151 53 269 187 312 353 33 126 9 311 -55
431 -69 130 -148 194 -394 323 -242 127 -297 195 -299 375 -1 72 2 86 30 135
38 69 97 114 168 130 149 33 290 -71 310 -230 13 -101 52 -145 130 -143 108 1
150 93 110 245 -43 166 -161 300 -312 353 l-53 19 0 85 c0 63 -5 94 -18 120
-20 38 -72 70 -112 70 -14 0 -40 -8 -59 -18z"/>
<path d="M1375 2809 c-37 -10 -73 -42 -86 -76 -16 -42 -11 -320 6 -357 30 -62
123 -89 180 -52 55 36 60 56 60 236 0 142 -3 170 -18 193 -32 49 -88 71 -142
56z"/>
<path d="M3673 2809 c-43 -12 -80 -60 -88 -113 -4 -25 -5 -102 -4 -173 4 -139
13 -165 64 -199 57 -37 150 -11 179 50 23 49 23 323 0 372 -25 52 -91 80 -151
63z"/>
</g>
</svg>
